Coordinates
version=1
nRows=18
nColumns=28
inDegrees=yes

Units are S.I. units (second, meters, Newtons, ...)
Angles are in degrees.

endheader
time	pelvis_tilt	pelvis_list	pelvis_rotation	pelvis_tx	pelvis_ty	pelvis_tz	hip_flexion_r	hip_adduction_r	hip_rotation_r	knee_angle_r	ankle_angle_r	subtalar_angle_r	mtp_angle_r	hip_flexion_l	hip_adduction_l	hip_rotation_l	knee_angle_l	socket_flexion	socket_adduction	socket_rotation	socket_tx	socket_ty	socket_tz	foot_flex	lumbar_extension	lumbar_bending	lumbar_rotation
      0.00000000	      1.16713567	     -6.14598788	    -11.53789976	     -0.87416147	      0.99557367	      0.28123381	    -27.30791148	      6.85126542	      6.34134834	     -2.45225242	     11.64135842	     -6.62489836	      5.29091158	     24.47711226	    -11.61918149	     -9.66964414	    -10.42956853	      0.00000000	      0.00000000	      0.00000000	      0.00000000	      0.00000000	      0.00000000	     -0.89187473	    -12.90327255	      3.32680410	     13.27286321
      0.00416667	      1.10580902	     -6.17349975	    -11.45862020	     -0.86864891	      0.99498736	      0.28081295	    -27.41805444	      6.85316388	      6.39769667	     -2.67637188	     11.57820063	     -6.64114610	      5.28563031	     24.33166349	    -11.51719583	     -9.67278906	    -10.42424128	      0.00000000	      0.00000000	      0.00000000	      0.00000000	      0.00000000	      0.00000000	     -0.97321076	    -12.76836787	      3.37595655	     13.27613044
      0.00833333	      1.22004136	     -6.18889143	    -11.62424153	     -0.86318299	      0.99488915	      0.28067565	    -27.56012842	      6.70747783	      6.56952392	     -3.18816589	     11.08190114	     -7.19299383	      5.60983575	     23.81631118	    -11.46131198	     -9.91911829	    -10.18096581	      0.00000000	      0.00000000	      0.00000000	      0.00000000	      0.00000000	      0.00000000	     -1.38451633	    -12.90825076	      3.32296402	     13.46517329
      0.01250000	      1.14636339	     -6.22193844	    -11.60045382	     -0.85735029	      0.99437597	      0.28030753	    -27.55896824	      6.69890478	      6.57156726	     -3.63123511	     10.92542083	     -7.25718421	      5.60839976	     23.60947235	    -11.37965050	     -9.88596556	    -10.08217306	      0.00000000	      0.00000000	      0.00000000	      0.00000000	      0.00000000	      0.00000000	     -1.65668955	    -12.78597892	      3.36795656	     13.43471542
      0.01666667	      1.07198680	     -6.24239367	    -11.58240765	     -0.85137085	      0.99385366	      0.27993287	    -27.54581766	      6.67581444	      6.59204931	     -4.10758598	     10.76364309	     -7.31929382	      5.60256809	     23.39478708	    -11.29015824	     -9.83831465	     -9.98722793	      0.00000000	      0.00000000	      0.00000000	      0.00000000	      0.00000000	      0.00000000	     -1.89947268	    -12.66080557	      3.40282485	     13.41363575
      0.02083333	      0.99876346	     -6.26283232	    -11.57578745	     -0.84526875	      0.99340218	      0.27956668	    -27.49417124	      6.65025583	      6.58680217	     -4.66198757	     10.56474444	     -7.40466616	      5.59451335	     23.16272517	    -11.19978685	     -9.81313822	     -9.89509732	      0.00000000	      0.00000000	      0.00000000	      0.00000000	      0.00000000	      0.00000000	     -2.19077966	    -12.53912985	      3.43441426	     13.39460741
      0.02500000	      0.91918815	     -6.27335479	    -11.56925973	     -0.83906601	      0.99297443	      0.27919995	    -27.42965113	      6.61487511	      6.58270069	     -5.22134476	     10.35600542	     -7.49584309	      5.59080125	     22.93721449	    -11.09985384	     -9.78949407	     -9.82253730	      0.00000000	      0.00000000	      0.00000000	      0.00000000	      0.00000000	      0.00000000	     -2.45340632	    -12.40946394	      3.44894317	     13.38191506
      0.02916667	      0.85212479	     -6.28859132	    -11.47555699	     -0.83261662	      0.99249666	      0.27877807	    -27.52398208	      6.61226625	      6.66334558	     -5.50850263	     10.28285873	     -7.50091709	      5.58800494	     22.75648814	    -10.98006431	     -9.76417943	     -9.88188960	      0.00000000	      0.00000000	      0.00000000	      0.00000000	      0.00000000	      0.00000000	     -2.52670384	    -12.23305082	      3.48971349	     13.38360663
      0.03333333	      0.77998103	     -6.25756439	    -11.52566117	     -0.82640075	      0.99220430	      0.27851670	    -27.31220430	      6.52804060	      6.64594326	     -6.36105596	      9.90929713	     -7.65959420	      5.55023868	     22.45326399	    -10.86622051	     -9.61680363	     -9.69365777	      0.00000000	      0.00000000	      0.00000000	      0.00000000	      0.00000000	      0.00000000	     -2.96003087	    -12.14559605	      3.42746278	     13.34258098
      0.03750000	      0.68334345	     -6.23329328	    -11.54311602	     -0.81999743	      0.99192246	      0.27812941	    -27.11170432	      6.45515375	      6.54891852	     -7.11416516	      9.56424197	     -7.87695880	      5.55895936	     22.23454557	    -10.73692022	     -9.69341362	     -9.66789593	      0.00000000	      0.00000000	      0.00000000	      0.00000000	      0.00000000	      0.00000000	     -3.23636437	    -11.98629929	      3.43443542	     13.33603489
      0.04166667	      0.56406681	     -6.16484591	    -11.56473869	     -0.81354332	      0.99163837	      0.27780614	    -26.89544104	      6.35063514	      6.54091325	     -7.83622139	      9.20789815	     -8.08896721	      5.61020182	     22.02883127	    -10.58118154	     -9.66898167	     -9.62197792	      0.00000000	      0.00000000	      0.00000000	      0.00000000	      0.00000000	      0.00000000	     -3.49094039	    -11.77486135	      3.36865358	     13.33272592
      0.04583333	      0.49644392	     -6.11049644	    -11.50447074	     -0.80699557	      0.99143071	      0.27751469	    -26.82244774	      6.29436319	      6.67316844	     -8.40640786	      8.95868622	     -8.16131236	      5.61344525	     21.79228106	    -10.42179119	     -9.49470611	     -9.61931645	      0.00000000	      0.00000000	      0.00000000	      0.00000000	      0.00000000	      0.00000000	     -3.64975004	    -11.61107457	      3.26621618	     13.30642029
      0.05000000	      0.37397444	     -6.01317356	    -11.51751332	     -0.80042662	      0.99126692	      0.27727851	    -26.52950045	      6.17738821	      6.56489265	     -9.25115817	      8.44129543	     -8.50564205	      5.67156735	     21.59491907	    -10.24633381	     -9.54089900	     -9.61329735	      0.00000000	      0.00000000	      0.00000000	      0.00000000	      0.00000000	      0.00000000	     -3.91322390	    -11.37918746	      3.15614733	     13.25956372
      0.05416667	      0.31462270	     -5.92218876	    -11.43637974	     -0.79387511	      0.99119149	      0.27688386	    -26.42032844	      6.09375930	      6.70860518	     -9.86715909	      8.13836844	     -8.60029410	      5.67452460	     21.36560540	    -10.04069374	     -9.37226692	     -9.64034041	      0.00000000	      0.00000000	      0.00000000	      0.00000000	      0.00000000	      0.00000000	     -4.07133982	    -11.23127581	      3.05031914	     13.22006826
      0.05833333	      0.26777013	     -5.81390991	    -11.38459910	     -0.78740552	      0.99121344	      0.27650259	    -26.18597926	      5.98030567	      6.69965551	    -10.70092172	      7.65702925	     -8.82553623	      5.65648636	     21.12046624	     -9.82327058	     -9.30846144	     -9.66559969	      0.00000000	      0.00000000	      0.00000000	      0.00000000	      0.00000000	      0.00000000	     -4.28677070	    -11.09166063	      2.91228005	     13.14795673
      0.06250000	      0.15126608	     -5.61632546	    -11.37711926	     -0.78067750	      0.99121462	      0.27625975	    -25.85334572	      5.77588796	      6.56955082	    -11.56096203	      7.01174236	     -9.25191188	      5.74134536	     20.93964247	     -9.55251380	     -9.35673630	     -9.72905203	      0.00000000	      0.00000000	      0.00000000	      0.00000000	      0.00000000	      0.00000000	     -4.46596592	    -10.82066778	      2.69409283	     13.04298940
      0.06666667	     -0.06310803	     -5.37676264	    -11.28716976	     -0.77388499	      0.99105985	      0.27591554	    -25.45824175	      5.58345780	      6.49359827	    -12.26818091	      5.41724875	    -10.10243148	      9.66909464	     20.90562494	     -9.23326979	     -9.28267060	     -9.82544501	      0.00000000	      0.00000000	      0.00000000	      0.00000000	      0.00000000	      0.00000000	     -4.62042739	    -10.41006843	      2.45811156	     12.89896820
      0.07083333	     -0.06247774	     -5.21890269	    -11.21222658	     -0.76734537	      0.99132639	      0.27554460	    -25.19954203	      5.42653063	      6.42767118	    -13.19443280	      4.88928947	    -10.28137259	      9.56374714	     20.63751948	     -8.97288725	     -9.23143050	     -9.93209579	      0.00000000	      0.00000000	      0.00000000	      0.00000000	      0.00000000	      0.00000000	     -4.75629690	    -10.30793249	      2.25754299	     12.79168007
